<svg width="89" height="26" viewBox="0 0 89 26" fill="none" xmlns="http://www.w3.org/2000/svg">
<path d="M34.1622 21.6331H38.202L38.1866 21.5409L37.6029 21.4948C37.4033 21.4948 37.2497 21.4795 37.1268 21.4641C37.0039 21.4487 36.9271 21.4334 36.8657 21.4027C36.8042 21.3873 36.7581 21.3719 36.7581 21.3566C36.7428 21.3412 36.7428 21.3105 36.7428 21.2798L38.6782 12.171H40.0606C40.5829 12.2325 40.9669 12.3707 41.1819 12.6165C41.397 12.8623 41.5659 13.3692 41.6888 14.1372L41.7195 14.3215H41.781L42.0114 12.0328H34.4541L33.7475 14.3215H33.8243L33.9472 14.1218C34.3312 13.492 34.6845 13.0159 34.9917 12.7087C35.2989 12.4015 35.6829 12.2325 36.1284 12.171H37.6951L35.7904 21.2337C35.7597 21.3566 35.4986 21.4487 34.9917 21.4795L34.2083 21.5409L34.1622 21.6331ZM45.6276 21.8174C46.1037 21.8174 46.7182 21.0801 47.4708 19.6055L47.3786 19.5594L46.2266 21.3105L45.4893 21.2183L46.6721 18.2691C47.2097 16.9328 47.4862 16.1494 47.4862 15.9343C47.4862 15.6886 47.3786 15.4735 47.179 15.2585C46.9793 15.0434 46.795 14.9359 46.6106 14.9359C46.242 14.9359 45.9041 15.1049 45.5815 15.4428C45.2743 15.75 44.8595 16.2876 44.3219 17.071C43.7843 17.8698 43.3081 18.6531 42.9088 19.4365L42.8166 19.4058C43.3081 18.2077 44.0454 15.8729 45.0592 12.4322L45.3511 11.4491L43.0624 11.7102L43.0317 11.8024L44.2605 11.8485C44.368 11.8485 44.3987 11.9714 44.3373 12.2018L44.0147 13.3384C43.7997 14.1065 43.5078 15.0588 43.1699 16.1955C42.8166 17.3475 42.5094 18.3152 42.2636 19.0832L41.3881 21.6023L42.1561 21.6791L42.7091 20.2199C43.3389 18.8682 43.9994 17.7315 44.6752 16.8099C45.3511 15.8883 45.8272 15.4275 46.0884 15.4275C46.2573 15.4275 46.3956 15.4889 46.5185 15.5811C46.6413 15.6886 46.7028 15.8115 46.7028 15.9651C46.7028 16.1187 46.4263 16.8867 45.9041 18.2691C45.7812 18.6071 45.6122 19.0218 45.3972 19.5287C45.1821 20.0356 45.0285 20.4349 44.921 20.7268C44.7981 21.0186 44.752 21.1876 44.752 21.2337C44.752 21.3412 44.8595 21.4641 45.0746 21.6023C45.2896 21.7559 45.474 21.8174 45.6276 21.8174ZM49.7326 21.8174C50.5621 21.8174 51.3916 21.0954 52.221 19.6362L52.1135 19.5901C51.7448 20.2045 51.4069 20.6346 51.0997 20.8804C50.7925 21.1415 50.4392 21.2644 50.0706 21.2644C49.6712 21.2644 49.364 21.0954 49.1489 20.7575C48.9339 20.4196 48.8264 19.9741 48.8264 19.4212C48.8264 18.945 48.9032 18.4381 49.0721 17.8851C50.3778 17.6854 51.3455 17.4243 51.9753 17.1017C52.5897 16.7945 52.9122 16.3798 52.9122 15.8883C52.9122 15.6118 52.774 15.3814 52.5129 15.197C52.2364 15.0127 51.9138 14.9206 51.5298 14.9206C50.9768 14.9206 50.4239 15.1663 49.8709 15.6271C49.3179 16.1033 48.8724 16.7177 48.5345 17.455C48.1812 18.1923 48.0123 18.945 48.0123 19.6976C48.0123 20.2967 48.1659 20.8036 48.4731 21.203C48.7803 21.6177 49.195 21.8174 49.7326 21.8174ZM49.1643 17.7315L49.1336 17.7162C49.4408 16.8099 49.8248 16.1187 50.3163 15.6271C50.7157 15.2585 51.0536 15.0588 51.3608 15.0588C51.5912 15.0588 51.7756 15.1356 51.9138 15.2892C52.0367 15.4428 52.1135 15.6271 52.1135 15.8422C52.1135 16.3644 51.8984 16.7638 51.4837 17.0403C51.069 17.3168 50.301 17.5472 49.1643 17.7315ZM55.2002 21.6331H61.9281L62.9265 18.9757L62.819 18.9603L62.7115 19.16C62.266 19.9281 61.8359 20.5117 61.4365 20.8958C61.0218 21.2798 60.4842 21.4795 59.8237 21.4795L57.535 21.418L59.4397 12.4322C59.4551 12.3093 59.7162 12.2325 60.2384 12.1864L61.1601 12.125L61.2215 12.0328H57.2432L57.2585 12.125L57.6272 12.171C58.0573 12.2325 58.303 12.2632 58.3798 12.2786C58.4566 12.3093 58.4873 12.34 58.4873 12.3861L56.6134 21.2183C56.5827 21.3412 56.3215 21.418 55.8146 21.4795L55.2463 21.5409L55.2002 21.6331ZM67.4631 21.8327C68.0622 21.8327 68.738 21.0954 69.4753 19.6055L69.3832 19.5594L68.2618 21.3105L67.5706 21.2337L68.4922 18.2998L69.6443 14.9666L68.8763 14.9052L68.4308 16.3798H68.4154C68.4154 15.4582 68.1236 14.9974 67.5399 14.9974C67.1098 14.9974 66.6951 15.2124 66.265 15.6425C65.6352 16.2723 65.0515 17.0403 64.5293 17.9466C64.007 18.8528 63.7459 19.6823 63.7459 20.4349C63.7459 20.8497 63.8534 21.1876 64.0992 21.4334C64.3296 21.6791 64.6214 21.802 64.9594 21.802C65.328 21.802 65.6967 21.587 66.0807 21.1262C66.4647 20.6807 66.9716 19.9127 67.6013 18.8375H67.6321C67.202 19.9127 67.0023 20.5732 67.0023 20.819C67.0023 21.0801 67.033 21.3105 67.1252 21.5255C67.2173 21.7406 67.3249 21.8327 67.4631 21.8327ZM65.3741 21.1722C65.159 21.1722 64.9594 21.0954 64.8058 20.9111C64.6521 20.7268 64.5753 20.4657 64.5753 20.097C64.5753 19.4365 64.7443 18.6685 65.113 17.793C65.4662 16.9174 65.8503 16.2723 66.2804 15.8422C66.5568 15.5657 66.8333 15.4275 67.1098 15.4275C67.4324 15.4275 67.6935 15.5811 67.9086 15.8575C68.1082 16.1494 68.2158 16.4412 68.2158 16.7331C68.2158 17.1017 68.0929 17.5318 67.8471 18.0234C66.8026 20.1277 65.9731 21.1722 65.3741 21.1722ZM71.645 21.8174C72.1365 21.8174 72.6127 21.6484 73.0428 21.2798C73.4729 20.9111 73.6725 20.481 73.6725 19.9741C73.6725 19.713 73.5804 19.4365 73.4268 19.1447C73.2732 18.8682 72.9199 18.4535 72.3669 17.9158C71.7218 17.3014 71.3838 16.7792 71.3838 16.3798C71.3685 16.0111 71.476 15.7039 71.7218 15.4428C71.9522 15.1817 72.2747 15.0434 72.6741 15.0434C73.0735 15.0434 73.4268 15.2431 73.7186 15.6271C73.3807 15.7347 73.2117 15.9343 73.2117 16.2262C73.2117 16.3798 73.2425 16.5027 73.3346 16.5948C73.4268 16.687 73.5343 16.7331 73.6879 16.7331C73.8262 16.7331 73.949 16.687 74.0566 16.5641C74.1641 16.4566 74.2102 16.303 74.2102 16.1187C74.1948 15.75 74.0566 15.4582 73.7954 15.2431C73.5189 15.0281 73.1503 14.9206 72.6741 14.9206C72.2133 14.9206 71.7679 15.1049 71.3685 15.4582C70.9538 15.8268 70.7541 16.2416 70.7694 16.7177C70.7694 16.9635 70.8309 17.1939 70.9538 17.4243C71.0766 17.6701 71.1995 17.8544 71.3224 17.9926C71.4453 18.1462 71.6603 18.3459 71.9368 18.6224C71.9368 18.6378 71.9983 18.6992 72.1211 18.8221C72.244 18.945 72.3055 19.0218 72.3362 19.0525C72.3669 19.0832 72.4284 19.16 72.5205 19.2676C72.6127 19.3751 72.6895 19.4519 72.7202 19.5133C72.7509 19.5748 72.797 19.6669 72.8584 19.7591C72.9199 19.8512 72.9506 19.9434 72.9813 20.0356C72.9967 20.1277 73.012 20.2199 73.012 20.3121C73.012 20.6654 72.9045 20.9879 72.6741 21.2798C72.4437 21.5716 72.1058 21.7099 71.645 21.7099C71.1227 21.7099 70.6619 21.4795 70.2625 21.0033C70.4008 20.9572 70.5237 20.8804 70.6312 20.7575C70.7233 20.65 70.7848 20.5271 70.7848 20.3889C70.7848 20.2506 70.7387 20.1277 70.6465 20.0356C70.5544 19.9434 70.4315 19.882 70.2933 19.882C70.155 19.882 70.0321 19.9434 69.94 20.0663C69.8324 20.1892 69.7864 20.3428 69.7864 20.5271C69.7864 20.9265 69.9553 21.2337 70.324 21.4641C70.6773 21.7099 71.1227 21.8174 71.645 21.8174ZM75.4425 21.8174C75.9186 21.8174 76.5177 21.0801 77.255 19.6055L77.1628 19.5594L76.0569 21.3105L75.2428 21.2183L76.9478 15.5811H78.2995L78.4224 15.1663L77.086 15.151L77.7312 13.0619H76.9785L76.3334 15.151L75.2428 15.1663L75.1045 15.5657L76.1951 15.5811L74.5055 21.1876C74.4594 21.3105 74.5669 21.4334 74.8127 21.587C75.0585 21.7406 75.2735 21.8174 75.4425 21.8174ZM78.5342 21.8481C78.7186 21.8481 78.8722 21.7867 78.995 21.6484C79.1179 21.5102 79.1947 21.3412 79.1947 21.1569C79.1947 20.9879 79.1333 20.8343 79.0104 20.6961C78.8875 20.5732 78.7339 20.4964 78.5496 20.4964C78.3499 20.4964 78.1809 20.5732 78.0427 20.6961C77.9045 20.8343 77.843 20.9879 77.843 21.1569C77.843 21.3412 77.9045 21.5102 78.0427 21.6484C78.1656 21.7867 78.3346 21.8481 78.5342 21.8481Z" fill="black"/>
<path d="M3.88724 10H5.66212L6.94953 2.73799H11.1992L11.4742 1.25059H1.18742L0.912438 2.73799H5.17465L3.88724 10ZM11.1329 10H12.9078L13.2203 8.25012V8.27512C13.5828 6.22525 14.6702 4.88785 16.0201 4.88785C17.2325 4.88785 17.6075 5.6128 17.2825 7.50017L16.8326 10H18.6074L19.0949 7.28768C19.5699 4.56287 18.9074 3.57543 17.145 3.55044C15.2577 3.55044 14.1452 4.66286 13.5828 6.32525H13.4828L14.6327 1.25059H12.6828L11.1329 10ZM23.5965 10.2C25.1713 10.2 25.9088 10.05 27.1962 9.58753L27.4462 8.16262C26.6837 8.4626 25.9838 8.85008 24.4589 8.85008C22.809 8.85008 22.0591 8.43761 22.0341 7.41267H27.8462L28.0337 6.38774C28.3086 4.68786 27.0087 3.55044 24.7714 3.55044C22.509 3.55044 20.7716 4.87535 20.4217 6.87521C20.0717 8.87508 21.3341 10.2 23.5965 10.2ZM22.1466 6.55023C22.4715 5.36281 23.2215 4.91284 24.5339 4.91284C25.8838 4.91284 26.4838 5.32532 26.3338 6.45024L22.1466 6.55023ZM32.5738 10H34.3487L35.0111 6.25025H41.0982L41.3357 4.86285H35.2486L35.6236 2.73799H41.8232L42.0856 1.25059H34.1237L32.5738 10ZM44.191 2.67549C44.8784 2.67549 45.3534 2.35052 45.4784 1.66306C45.5909 0.988109 45.2159 0.663131 44.5409 0.663131C43.8785 0.663131 43.391 0.988109 43.2785 1.66306C43.1535 2.35052 43.516 2.67549 44.191 2.67549ZM42.0286 10H43.8035L44.9034 3.75042H43.1285L42.0286 10ZM45.6082 10H47.3831L47.7706 7.78765C48.1581 5.85028 49.358 5.03784 51.9328 5.03784L52.1828 3.55044C49.8455 3.55044 48.758 4.27539 48.0706 6.32525H47.9456L48.658 3.75042H46.7082L45.6082 10ZM55.0608 10.2C57.2607 10.2 58.8481 9.58753 59.0981 8.13763C59.573 5.41281 53.7734 6.81272 53.9984 5.6003C54.0734 5.16283 54.7484 4.95034 56.2233 4.95034C57.1607 4.95034 58.2481 5.08783 59.0981 5.27532L59.348 3.90041C58.2981 3.68793 57.0357 3.55044 56.2857 3.55044C54.0859 3.55044 52.486 4.22539 52.236 5.6253C51.7611 8.33761 57.5857 6.80022 57.3607 8.13763C57.2607 8.66259 56.5607 8.82508 55.0233 8.82508C53.9234 8.82508 53.0235 8.68759 52.0485 8.28762L51.7985 9.71252C52.786 10.0125 54.0984 10.2 55.0608 10.2ZM61.9083 10.125C62.5833 10.125 63.0957 10.05 63.6457 9.87501L63.8082 8.93757C61.9833 9.03756 62.0208 8.86258 62.2833 7.37518L62.6958 5.03784H64.4956L64.7331 3.75042H62.9207L63.2332 2.00054L61.6708 2.25052L61.3959 3.75042H60.2584L60.0209 5.03784H60.9209L60.4459 7.75015C60.1334 9.53753 60.2834 10.125 61.9083 10.125Z" fill="black"/>
</svg>
