<svg width="0" height="0" class="hidden">
  <symbol fill="none" xmlns="http://www.w3.org/2000/svg" viewBox="0 0 926 237" id="Aught">
    <g id="Aught">
      <path d="M80.0935 230.727L51.0688 227.34C40.4141 226.211 36.0053 223.2 36.0053 216.802C36.0053 207.016 52.5384 174.273 77.8891 130.992C106.179 129.487 134.836 130.239 164.963 130.239C169.005 159.595 173.781 200.995 173.781 214.167C173.781 221.694 167.902 226.963 151.002 228.469L124.549 230.727V232.232H204.643V230.727L200.601 228.469C189.946 222.823 185.538 181.8 174.516 111.421C169.739 80.5601 159.82 24.1064 157.248 0.772217H155.778C35.2705 192.338 18.3701 225.458 4.04141 229.598L0 230.727V232.232H80.0935V230.727ZM163.126 119.701C163.494 122.336 163.861 124.97 164.596 127.981C136.673 127.981 108.016 128.734 80.0935 127.228C98.0961 96.7435 120.14 60.6131 144.021 23.3537C148.43 42.9243 157.983 92.6035 163.126 119.701Z" fill="white"></path>
      <path d="M347.085 103.518C369.129 13.5684 371.701 12.4393 387.131 10.5575L409.91 7.92301V6.41758H318.06V7.92301L341.941 10.5575C363.25 12.8157 363.25 15.4502 330.919 145.294C315.488 207.016 301.894 226.587 260.745 226.587C220.331 226.587 199.389 216.049 199.757 181.424C199.757 173.897 201.226 162.606 203.798 151.692C237.232 15.4502 239.069 12.0629 255.969 10.5575L285.729 7.92301V6.41758H189.102L188.735 7.92301L205.635 10.5575C227.312 13.9447 226.577 15.4502 200.859 121.207C195.348 144.165 187.633 169.381 187.633 184.811C187.633 214.543 198.655 236.372 247.519 236.372C295.649 236.372 324.306 199.866 335.695 153.197C338.634 141.154 340.839 129.863 347.085 103.518Z" fill="white"></path>
      <path d="M424.542 235.996C462.752 235.996 489.94 210.78 499.86 205.511C510.147 141.906 511.249 137.39 531.089 127.981L536.6 125.347V123.841C516.025 124.97 484.061 125.347 422.705 123.841V125.347L478.918 133.25C500.227 136.261 502.431 140.401 502.431 169.004C502.431 207.393 481.857 222.823 439.238 222.823C374.576 222.823 344.449 198.736 344.449 172.391C344.449 93.3563 401.763 6.04123 484.796 6.04123C518.597 6.04123 527.047 29.3754 523.741 57.2259L519.332 95.238H520.434L541.376 23.3537C528.517 14.6975 506.84 2.654 470.835 2.654C382.291 2.654 340.04 79.431 340.04 155.832C340.04 203.629 369.799 235.996 424.542 235.996Z" fill="white"></path>
      <path d="M675.434 121.207C652.288 214.92 648.614 223.576 638.694 225.081L602.689 230.727V232.232H705.929V230.727L675.802 225.458C662.208 223.2 663.678 216.802 687.559 117.443C710.338 23.73 714.379 15.0738 724.299 13.5684L760.304 7.92301V6.41758H657.799V7.92301L687.559 13.192C700.418 15.4502 699.316 21.8482 677.639 111.421H673.965C636.857 111.421 589.095 111.421 551.62 109.916C572.929 23.3537 576.971 15.0738 586.523 13.5684L622.529 7.92301V6.41758H520.024V7.92301L549.783 13.192C563.01 15.4502 561.54 22.2246 537.659 121.207C514.513 214.92 510.839 223.576 500.919 225.081L464.913 230.727V232.232H568.153V230.727L538.026 225.458C524.433 223.2 525.902 216.802 549.783 117.443L550.518 115.185C588.36 113.68 636.49 113.68 673.965 113.68H677.271L675.434 121.207Z" fill="white"></path>
      <path d="M845.539 230.727L819.454 227.716C793.001 224.705 793.368 222.071 818.719 117.819C833.415 56.4732 842.967 24.1064 850.683 8.67571C915.346 11.3102 914.611 14.3211 912.774 53.0859L909.834 117.443H910.937C915.345 78.6783 919.754 37.6553 926 6.41758H760.302C750.015 37.6553 732.747 78.6783 716.581 117.443L718.051 117.819L748.913 53.0859C766.181 16.2029 770.589 11.3102 830.843 8.67571C831.211 22.9773 823.128 55.7205 807.329 121.207C782.346 222.447 782.346 224.329 755.159 227.716L730.175 230.727V232.232H845.172L845.539 230.727Z" fill="white"></path>
    </g>
  </symbol>
</svg>