<?xml version="1.0" encoding="utf-8"?>
<!-- Generator: Adobe Illustrator 24.1.1, SVG Export Plug-In . SVG Version: 6.00 Build 0)  -->
<svg version="1.1" id="Layer_1" xmlns="http://www.w3.org/2000/svg" xmlns:xlink="http://www.w3.org/1999/xlink" x="0px" y="0px"
	 viewBox="0 0 512 512" style="enable-background:new 0 0 512 512;" xml:space="preserve">
<style type="text/css">
	.st0{fill:#333333;}
</style>
<g id="XMLID_5_">
	<path id="XMLID_9_" class="st0" d="M507.4,439.2l-89-89.8c22.8-35.5,36.2-77.2,36.2-122.1C454.6,102,353,0.3,227.7,0.3
		S0,102,0,227.2s101.6,226.9,226.9,226.9c44.9,0,86.7-13.4,122.1-36.2l89,89c6.3,6.3,16.5,6.3,22.8,0l45.7-45.7
		C513.7,455.7,513.7,445.5,507.4,439.2z M226.9,389.5c-89,0-162.3-72.5-162.3-162.3S137.9,64.9,226.9,64.9s162.3,72.5,162.3,162.3
		S316.7,389.5,226.9,389.5z"/>
</g>
</svg>
